<?xml version="1.0" encoding="UTF-8" standalone="no"?>
<!DOCTYPE svg PUBLIC "-//W3C//DTD SVG 1.1//EN" "http://www.w3.org/Graphics/SVG/1.1/DTD/svg11.dtd">
<svg version="1.1" xmlns="http://www.w3.org/2000/svg" xmlns:xlink="http://www.w3.org/1999/xlink" preserveAspectRatio="xMidYMid meet" viewBox="0 0 640 640" width="640" height="640"><defs><path d="M189.45 595.7C417.46 595.7 542.13 389.78 542.13 211.31C542.13 205.43 542.13 199.55 541.88 193.94C566.04 174.89 587.12 151.08 603.83 123.9C581.72 134.55 557.81 141.83 532.62 145.19C558.33 128.38 577.86 102.05 587.12 70.39C563.21 85.8 536.74 97.01 508.46 103.17C485.84 76.83 453.71 60.58 417.98 60.58C349.6 60.58 294.07 121.1 294.07 195.62C294.07 206.27 295.1 216.64 297.42 226.44C194.34 220.84 103.08 167.05 41.9 85.24C31.36 105.13 25.19 128.38 25.19 153.04C25.19 199.83 47.04 241.29 80.46 265.38C60.15 264.82 41.13 258.66 24.42 248.57C24.42 249.13 24.42 249.69 24.42 250.26C24.42 315.81 67.09 370.17 123.9 382.77C113.62 385.85 102.57 387.54 91.26 387.54C83.29 387.54 75.57 386.7 67.86 385.01C83.54 438.81 129.3 477.75 183.54 478.87C141.12 515.01 87.66 536.58 29.56 536.58C19.54 536.58 9.77 536.02 0 534.62C54.24 573.29 119.53 595.7 189.45 595.7" id="finbHNGlV"></path></defs><g><g><g><use xlink:href="#finbHNGlV" opacity="1" fill="#000000" fill-opacity="1"></use><g><use xlink:href="#finbHNGlV" opacity="1" fill-opacity="0" stroke="#000000" stroke-width="1" stroke-opacity="0"></use></g></g></g></g></svg>
